<svg xmlns="http://www.w3.org/2000/svg" aria-hidden="true" style="position:absolute;width:0;height:0;overflow:hidden"><defs><symbol id="icon-mail" viewBox="0 0 32 32"><path d="M26.67 0H5.33A5.35 5.35 0 0 0 0 5.33v21.34C0 29.6 2.4 32 5.33 32h21.34C29.6 32 32 29.6 32 26.67V5.33C32 2.4 29.6 0 26.67 0zm0 4c.25 0 .48.07.68.2L16 13.59 4.64 4.19c.2-.12.44-.19.7-.19h21.33zM5.33 28l-.17-.01 7.05-9.78-.92-.92L4 24.6V5.49L16 20 28 5.49v19.1l-7.3-7.3-.9.92 7.04 9.78-.17.01H5.33z"/></symbol><symbol id="icon-facebook" viewBox="0 0 32 32"><path d="M19 6h5V0h-5a7 7 0 0 0-7 7v3H8v6h4v16h6V16h5l1-6h-6V7c0-.54.46-1 1-1z"/></symbol><symbol id="icon-instagram" viewBox="0 0 32 32"><path d="M16 2.88c4.28 0 4.78.02 6.46.1 1.56.06 2.4.33 2.97.54.75.3 1.28.64 1.84 1.2.56.56.9 1.1 1.2 1.84.22.56.48 1.4.55 2.97.07 1.68.1 2.19.1 6.46s-.03 4.78-.1 6.46a8.77 8.77 0 0 1-.55 2.97 4.94 4.94 0 0 1-1.2 1.84c-.56.56-1.09.9-1.83 1.2-.57.22-1.42.48-2.97.55-1.69.07-2.2.1-6.46.1s-4.79-.03-6.47-.1a8.77 8.77 0 0 1-2.97-.55 4.95 4.95 0 0 1-1.84-1.2c-.56-.56-.9-1.09-1.2-1.83a8.81 8.81 0 0 1-.55-2.97c-.07-1.69-.09-2.2-.09-6.46s.02-4.79.1-6.47c.06-1.56.33-2.4.54-2.97.3-.74.64-1.28 1.2-1.83.56-.57 1.1-.91 1.84-1.2a8.8 8.8 0 0 1 2.97-.55c1.68-.08 2.18-.1 6.46-.1zM16 0c-4.34 0-4.89.02-6.6.1-1.7.07-2.86.34-3.88.74A7.8 7.8 0 0 0 2.7 2.69 7.83 7.83 0 0 0 .84 5.52C.44 6.54.17 7.7.09 9.4.02 11.11 0 11.66 0 16s.02 4.89.1 6.6c.07 1.7.34 2.86.74 3.87a7.8 7.8 0 0 0 1.85 2.84 7.82 7.82 0 0 0 2.83 1.85c1.02.39 2.18.67 3.88.74 1.7.08 2.25.1 6.6.1s4.88-.02 6.59-.1c1.7-.07 2.87-.35 3.88-.74 1.05-.41 1.94-.96 2.83-1.85s1.44-1.78 1.84-2.83c.4-1.02.67-2.18.75-3.88.07-1.7.1-2.25.1-6.6s-.03-4.88-.1-6.59c-.08-1.7-.35-2.87-.75-3.88a7.5 7.5 0 0 0-1.83-2.84A7.82 7.82 0 0 0 26.48.84C25.46.44 24.3.17 22.6.1 20.9.02 20.35 0 16 0z"/><path d="M16 7.78a8.22 8.22 0 1 0 0 16.44 8.22 8.22 0 0 0 0-16.44zm0 13.55a5.33 5.33 0 1 1 0-10.66 5.33 5.33 0 0 1 0 10.66zM26.46 7.46a1.92 1.92 0 1 1-3.84 0 1.92 1.92 0 0 1 3.84 0z"/></symbol><symbol id="icon-telegram" viewBox="0 0 32 32"><path d="M31.88 5.05 27.07 27.8c-.34 1.6-1.31 2-2.67 1.25l-7.33-5.43-3.55 3.43c-.4.4-.73.75-1.47.75-.96 0-.8-.36-1.12-1.27L8.4 18.27 1.13 16c-1.57-.47-1.58-1.55.35-2.33L29.83 2.73c1.29-.57 2.53.32 2.05 2.32z"/></symbol><symbol id="icon-tiktok" viewBox="0 0 32 32"><path d="M16.7.03C18.46 0 20.2 0 21.93 0a8.3 8.3 0 0 0 2.33 5.56c1.5 1.48 3.6 2.16 5.66 2.39v5.37a14.29 14.29 0 0 1-7.76-2.53c-.02 3.89 0 7.78-.03 11.66-.1 1.87-.72 3.72-1.8 5.26a9.93 9.93 0 0 1-7.88 4.28c-1.9.1-3.81-.42-5.44-1.38a10.06 10.06 0 0 1-4.87-7.6c-.03-.68-.04-1.34-.01-2a10 10 0 0 1 3.44-6.6 9.92 9.92 0 0 1 8.2-2.3c.03 1.97-.05 3.95-.05 5.92a4.67 4.67 0 0 0-4.03.5 4.63 4.63 0 0 0-1.81 2.32c-.28.68-.2 1.43-.2 2.15.33 2.19 2.44 4.03 4.68 3.83a4.48 4.48 0 0 0 3.69-2.15c.25-.44.53-.9.55-1.41.13-2.39.08-4.76.09-7.15.01-5.37-.01-10.73.03-16.1z"/></symbol></defs></svg>